<?xml version="1.0" encoding="utf-8"?>
<!-- Svg Vector Icons : http://www.onlinewebfonts.com/icon -->
<!DOCTYPE svg PUBLIC "-//W3C//DTD SVG 1.1//EN" "http://www.w3.org/Graphics/SVG/1.1/DTD/svg11.dtd">
<svg version="1.1" xmlns="http://www.w3.org/2000/svg" xmlns:xlink="http://www.w3.org/1999/xlink" x="0px" y="0px" viewBox="0 0 1000 1000" enable-background="new 0 0 1000 1000" xml:space="preserve">
<metadata> Svg Vector Icons : http://www.onlinewebfonts.com/icon </metadata>
<g><g transform="translate(0.000000,512.000000) scale(0.100000,-0.100000)"><path d="M4593.6,5011.1c-82.4-7.7-151.4-17.3-157.2-21.1c-3.8-5.7-49.8-185.9-101.6-402.5l-92-392.9l-57.5-3.8c-53.7-5.7-70.9,15.3-287.5,320.1c-126.5,178.3-239.6,324-253,325.9c-55.6,1.9-502.2-170.6-759.1-293.3c-212.8-101.6-279.9-141.9-274.1-164.8c5.8-17.3,36.4-197.4,69-402.5c59.4-368,59.4-371.9,23-408.3c-36.4-38.3-40.3-36.4-392.9,182.1l-356.5,220.4l-82.4-69c-132.3-109.3-469.6-442.8-600-594.2L1151,3167.1l218.5-352.7c195.5-316.3,216.6-358.4,195.5-392.9c-13.4-21.1-34.5-38.3-46-38.3c-23,0-709.2,111.2-766.7,124.6c-34.5,7.7-55.6-24.9-166.8-254.9c-185.9-389.1-325.9-782.1-287.5-805.1c95.8-59.4,638.3-458.1,644-473.5c3.8-9.6,1.9-36.4-5.7-57.5c-13.4-34.5-76.7-53.7-404.4-132.3c-214.7-49.8-394.9-95.8-398.7-99.7c-38.3-36.4-46-958.4-9.6-1092.6c9.6-34.5,63.3-51.7,404.5-134.2c329.7-78.6,394.9-99.7,408.3-132.2c7.7-21.1,9.6-46,5.7-57.5c-3.8-9.6-153.3-122.7-331.6-249.2c-178.3-126.5-325.9-239.6-325.9-251.1c-1.9-70.9,197.4-575,329.7-837.6L715.9-2269l383.4,63.3c210.8,34.5,396.8,65.2,412.1,65.2c15.3,0,40.3-17.3,53.7-38.3c19.2-32.6-1.9-78.6-195.5-391L1151-2924.5l118.8-139.9c151.4-176.3,596.1-605.7,653.6-632.5c40.3-17.2,86.3,5.8,391,193.6c308.6,187.8,350.8,210.8,385.3,189.8c21.1-13.4,38.3-34.5,38.3-46c0-23-111.2-709.2-124.6-766.7c-7.7-34.5,24.9-55.6,254.9-166.8c318.2-151.4,776.3-323.9,795.5-299c3.8,3.8,109.3,149.5,233.9,323.9c124.6,174.4,231.9,324,239.6,331.6c7.7,7.7,34.5,7.7,59.4-3.8c44.1-15.3,55.6-49.8,139.9-406.3c49.8-214.7,95.8-394.9,99.7-398.7c36.4-38.3,958.4-46,1092.6-9.6c34.5,9.6,51.8,63.3,134.2,404.5c84.3,358.4,95.8,394.9,139.9,410.2c24.9,11.5,51.8,11.5,59.4,3.8c7.7-7.7,115-157.2,239.6-331.6c124.6-174.4,228.1-320.1,231.9-323.9c23-26.8,575,185.9,868.3,331.6c157.2,78.6,174.4,93.9,174.4,141.8c0,28.8-26.8,203.2-57.5,387.2c-67.1,398.7-67.1,387.2-19.2,417.9c34.5,21.1,76.7-1.9,385.3-189.8c295.2-182.1,352.7-210.8,387.2-195.5c59.4,26.8,471.5,425.5,638.3,615.3l138,159.1l-218.5,352.7c-195.5,314.3-216.6,358.4-195.5,392.9c13.4,21.1,34.5,38.3,47.9,38.3s180.2-26.8,373.8-57.5c191.7-32.6,368-57.5,392.9-57.5c36.4,0,59.4,32.6,139.9,191.7c130.4,260.7,327.8,762.9,325.9,831.9c0,11.5-147.6,124.6-325.9,251.1c-178.3,126.5-327.8,239.6-331.6,249.2c-3.8,11.5-1.9,36.4,5.7,57.5c13.4,32.6,78.6,53.7,408.3,132.2c341.2,82.4,394.9,99.7,404.5,134.2c36.4,134.2,28.8,1056.2-9.6,1092.6c-3.8,3.8-184,49.8-398.7,99.7c-356.5,84.3-391,95.8-406.4,139.9c-11.5,24.9-11.5,51.8-3.8,59.4c7.7,7.7,157.2,115,331.6,239.6c174.4,124.6,320.1,230,323.9,233.9c24.9,19.2-147.6,477.3-299,795.5c-111.2,230-132.2,262.6-166.8,254.9c-57.5-13.4-743.7-124.6-766.7-124.6c-11.5,0-32.6,17.3-46,38.3c-21.1,34.5,1.9,76.7,189.8,383.4c187.9,304.8,210.8,352.7,193.6,391c-26.8,59.4-417.9,463.9-613.4,636.4l-159.1,138l-354.6-218.5c-312.5-193.6-358.5-214.7-391-195.5c-47.9,30.7-47.9,19.2,19.2,417.9c30.7,184,57.5,358.4,57.5,387.2c0,47.9-19.2,63.3-191.7,149.5c-260.7,130.3-762.9,327.8-831.9,325.9c-11.5,0-124.6-147.6-251.1-325.9c-126.5-178.3-237.7-327.8-249.2-331.6c-9.6-3.8-36.4-1.9-57.5,5.7c-32.6,13.4-53.7,78.6-132.3,408.3c-82.4,341.2-99.7,394.9-134.2,404.5C5463.9,5016.8,4754.6,5026.4,4593.6,5011.1z M5316.3,4702.5c7.7-11.5,53.7-189.8,101.6-396.8l90.1-377.6l210.8-42.2c116.9-24.9,224.3-44.1,241.5-44.1c21.1-1.9,118.8,118.8,258.8,314.3c151.4,208.9,239.6,316.3,262.6,316.3c40.3,0,490.7-182.1,540.5-218.5c28.8-21.1,26.8-51.8-32.6-417.9l-65.2-394.9l199.3-130.3c111.2-72.8,208.9-130.3,218.5-126.5c7.7,1.9,162.9,93.9,343.1,205.1l325.9,201.3l51.8-36.4c51.8-38.3,341.2-329.7,385.3-389.1c19.2-26.8-7.7-80.5-178.3-354.6c-111.2-178.3-203.2-333.5-207-345c-3.8-11.5,49.9-107.3,118.8-212.8c97.8-151.4,134.2-193.6,168.7-193.6c24.9-1.9,205.1,24.9,400.6,57.5c335.4,55.6,358.5,57.5,381.4,26.8c36.4-49.8,218.5-500.3,218.5-540.5c0-23-109.3-111.2-316.3-260.7c-199.4-143.8-316.3-239.6-314.4-258.8c0-17.3,19.2-126.5,44.1-243.4l42.1-210.8l377.6-88.2c207-49.8,385.3-95.8,394.9-103.5c28.8-15.3,28.8-615.3,1.9-632.5c-11.5-7.7-189.8-53.7-396.8-101.6l-377.6-90.1l-42.1-210.8c-24.9-115-44.1-224.3-44.1-241.5c-1.9-21.1,122.7-122.7,322-266.4l323.9-233.9l-47.9-128.4c-82.4-218.5-185.9-446.6-207-454.3c-9.6-3.8-193.6,21.1-404.5,55.6l-387.2,63.3l-130.4-199.3c-72.9-111.2-130.4-210.8-126.5-220.4c3.8-11.5,95.8-166.8,207-345l201.3-322l-57.5-70.9c-53.7-67.1-274.1-283.7-358.4-354.6c-40.3-34.5-47.9-30.7-383.4,176.3c-316.3,197.4-343.1,210.8-379.5,184c-23-15.3-111.2-72.8-197.4-128.4c-118.8-76.7-157.2-113.1-159.1-143.8c0-24.9,26.8-199.3,57.5-392.9c32.6-191.7,57.5-356.5,57.5-364.2c0-28.8-509.9-245.4-575-245.4c-15.3,0-130.3,143.8-256.9,316.3c-139.9,195.5-237.7,316.3-258.8,314.4c-17.2,0-124.6-19.2-241.5-44.1l-210.8-42.2l-90.1-377.6c-47.9-207-93.9-385.3-101.6-396.8c-17.3-26.8-617.2-26.8-632.6,1.9c-7.7,9.6-53.7,187.9-103.5,394.9l-88.2,377.6l-210.8,42.2c-116.9,24.9-226.2,44.1-243.4,44.1c-19.2,1.9-115-115-258.8-314.4c-134.2-185.9-239.6-316.3-258.8-316.3c-32.6,0-406.4,145.7-511.8,199.4c-32.6,17.2-59.4,42.2-59.4,55.6c0,11.5,26.8,174.4,57.5,358.4c30.7,184,57.5,356.5,55.6,383.4c0,38.3-36.4,70.9-193.6,172.5c-105.4,69-201.3,122.7-212.8,118.8c-11.5-3.8-166.8-95.8-343.1-207L1988.7-3350l-51.7,38.3c-51.8,38.3-341.2,329.7-385.3,387.2c-19.2,26.8,9.6,82.4,180.2,360.4c109.3,180.2,203.2,335.4,205.1,343.1c3.8,9.6-53.7,107.3-126.5,218.5l-130.4,199.3l-387.2-63.3c-210.9-34.5-394.9-59.4-406.4-55.6c-21.1,7.7-164.8,331.6-226.2,506l-26.8,76.7l323.9,233.9c199.3,143.8,323.9,245.4,322,266.4c0,17.3-19.2,126.5-44.1,241.5l-42.2,210.8l-377.6,90.1c-207,47.9-385.3,93.9-396.8,101.6c-26.8,17.2-26.8,617.2,1.9,632.5c9.6,7.7,187.8,53.7,394.9,103.5l377.6,88.2l44.1,220.4c23,120.8,44.1,230,44.1,241.5c0,13.4-145.7,128.4-323.9,256.8l-323.9,233.9l26.8,76.7c63.3,180.2,207,498.4,228.1,506c11.5,5.7,178.3-17.3,368-49.8c191.7-30.7,368-57.5,392.9-55.6c34.5,0,70.9,42.2,168.7,193.6c69,105.4,122.7,201.3,118.8,208.9c-1.9,9.6-93.9,164.8-205.1,345l-201.3,325.9l36.4,51.7c38.3,51.8,329.7,341.2,387.2,385.3c26.8,19.2,82.4-9.6,360.4-180.2c180.2-109.3,335.4-203.2,345-205.1c7.7-3.8,103.5,49.9,208.9,118.8c151.4,97.8,193.6,134.2,193.6,168.7c1.9,24.9-24.9,201.3-55.6,392.9c-32.6,189.8-55.6,356.5-49.8,368c7.7,21.1,325.9,164.9,506,228.1l76.7,26.8l233.9-323.9c128.4-178.3,243.4-324,256.9-324c11.5,0,120.8,21.1,241.5,44.1l220.4,44.1l88.2,377.6c49.8,207,95.8,385.3,103.5,394.9C4699.1,4729.3,5299,4729.3,5316.3,4702.5z"/><path d="M4846.7,3034.8v-153.3H5000h153.4v153.3v153.3H5000h-153.3V3034.8z"/><path d="M3619.9,2728.2v-153.3h153.3h153.3v153.3v153.3h-153.3h-153.3V2728.2z"/><path d="M6073.4,2728.2v-153.3h153.3h153.3v153.3v153.3h-153.3h-153.3V2728.2z"/><path d="M2699.8,2114.8v-153.3h153.3h153.3v153.3v153.3h-153.3h-153.3V2114.8z"/><path d="M6993.5,2114.8v-153.3h153.3h153.3v153.3v153.3h-153.3h-153.3V2114.8z"/><path d="M4079.9,1635.6c-479.2-262.6-881.7-492.6-895.2-509.9c-19.2-26.8-24.9-247.3-24.9-1006.3c0-897.1,1.9-973.7,34.5-1010.1c42.2-47.9,1757.7-981.4,1805.6-981.4c46,0,1763.5,933.5,1807.6,981.4c30.7,36.4,32.6,113.1,32.6,1012.1c0,899-1.9,975.7-32.6,1012.1c-49.8,53.7-1763.5,981.4-1813.3,979.5C4971.2,2112.9,4559.1,1898.2,4079.9,1635.6z M5695.8,1409.4c644.1-350.8,667.1-366.1,623-392.9c-23-15.3-331.6-184-682.4-373.8L5000,295.7l-680.5,368c-373.8,203.2-678.5,371.9-678.5,377.6c0,17.3,1349.4,745.6,1368.6,739.9C5021.1,1777.4,5329.7,1610.7,5695.8,1409.4z M4168.1,405L4844.7,35l1.9-743.7c0-481.1-5.7-741.8-19.2-738c-9.6,3.8-320.1,170.6-690.1,369.9l-670.9,364.2V31.2c0,408.3,5.7,741.8,11.5,741.8C3483.8,773,3794.3,606.2,4168.1,405z M6533.5,31.2l-1.9-743.7l-670.9-364.2c-368-199.4-678.5-366.1-688.1-369.9c-11.5-3.8-19.2,270.3-19.2,738V35l676.6,368c369.9,203.2,680.5,368,690.1,369.9C6527.7,773,6533.5,439.5,6533.5,31.2z"/><path d="M2086.4,1194.7v-153.3h153.3h153.3v153.3V1348h-153.3h-153.3V1194.7z"/><path d="M7606.9,1194.7v-153.3h153.3h153.4v153.3V1348h-153.4h-153.3V1194.7z"/><path d="M1933.1,121.3V-32h153.3h153.3v153.3v153.3h-153.3h-153.3V121.3z"/><path d="M7760.2,121.3V-32h153.4h153.3v153.3v153.3h-153.3h-153.4V121.3z"/><path d="M2086.4-952.1v-153.3h153.3h153.3v153.3v153.3h-153.3h-153.3V-952.1z"/><path d="M7606.9-952.1v-153.3h153.3h153.4v153.3v153.3h-153.4h-153.3V-952.1z"/><path d="M2699.8-1872.2v-153.3h153.3h153.3v153.3v153.3h-153.3h-153.3V-1872.2z"/><path d="M6993.5-1872.2v-153.3h153.3h153.3v153.3v153.3h-153.3h-153.3V-1872.2z"/><path d="M3619.9-2485.6v-153.3h153.3h153.3v153.3v153.3h-153.3h-153.3V-2485.6z"/><path d="M6073.4-2485.6v-153.3h153.3h153.3v153.3v153.3h-153.3h-153.3V-2485.6z"/><path d="M4846.7-2792.3v-153.3H5000h153.4v153.3v153.3H5000h-153.3V-2792.3z"/></g></g>
</svg>