<?xml version="1.0" encoding="UTF-8"?>
<svg width="250px" height="250px" viewBox="0 0 250 250" version="1.1" xmlns="http://www.w3.org/2000/svg" xmlns:xlink="http://www.w3.org/1999/xlink">
    <!-- Generator: Sketch 55 (78076) - https://sketchapp.com -->
    <title>Bolinger Bands</title>
    <desc>Created with Sketch.</desc>
    <defs>
        <circle id="path-1" cx="125" cy="125" r="125"></circle>
    </defs>
    <g id="Bolinger-Bands" stroke="none" stroke-width="1" fill="none" fill-rule="evenodd">
        <mask id="mask-2" fill="white">
            <use xlink:href="#path-1"></use>
        </mask>
        <use id="Oval" fill="#D8D8D8" xlink:href="#path-1"></use>
        <rect id="Rectangle" fill="#F8C455" mask="url(#mask-2)" x="0" y="0" width="250" height="250"></rect>
        <g id="Group" mask="url(#mask-2)" fill-rule="nonzero">
            <g transform="translate(119.000000, 136.500000) scale(1, -1) translate(-119.000000, -136.500000) translate(-3.000000, 46.000000)">
                <path d="M19.010428,8.56528479 C19.901858,10.3482015 20.8258512,13.0083812 21.74981,16.4381133 C23.4181614,22.6310282 25.0292473,31.081261 26.5796643,41.3144805 C27.4851579,47.2910109 28.3344768,53.6335125 29.1634302,60.4312002 C29.4802803,63.0294747 29.7821472,65.5941968 30.1002874,68.3692112 C30.2819337,69.9536425 30.7890713,74.4389173 30.7796384,74.3560219 C32.291651,87.6433184 33.2790852,95.5412019 34.8209423,105.413656 C38.6363454,129.843541 42.1405087,142.321952 48.3192215,142.965488 C52.9516861,143.447976 55.7883254,138.119725 58.5960848,126.733325 C61.300438,115.766271 63.9769344,98.4965454 66.6305823,74.3449227 L60.92323,73.7146575 C58.2950512,97.634479 55.6528403,114.682982 53.0220122,125.351866 C51.8344609,130.167783 50.6663723,133.603223 49.565617,135.670845 C49.2846035,136.198692 49.0236128,136.606905 48.7974929,136.896859 C48.5387346,136.569216 48.2468392,136.106704 47.9387692,135.51756 C47.058729,133.834598 46.1467684,131.321281 45.2368529,128.08105 C43.5887971,122.212283 42.0055542,114.203545 40.4937027,104.523215 C38.9680097,94.7542591 37.9877258,86.9135656 36.4845081,73.7035583 C36.4943979,73.7904678 35.9868687,69.3017299 35.8046073,67.7119336 C35.484993,64.9240607 35.1815511,62.345957 34.8628687,59.732658 C34.0276486,52.8835804 33.1711952,46.4878006 32.2564267,40.4500528 C28.3400577,14.6008372 24.8419631,1.61592125 18.6280502,1.02052598 C13.9485031,0.57214823 11.1926451,6.14695466 8.43847343,18.2275367 C5.78761742,29.8549467 3.18552416,48.1567342 0.630582308,73.7430936 L6.34389835,74.3164867 C8.87701603,48.9486846 11.4494559,30.8554641 14.0360018,19.5101365 C15.2070337,14.3736565 16.3655842,10.698984 17.4674025,8.47012322 C17.7332555,7.93233102 17.9831634,7.50549603 18.2046086,7.18971248 C18.450824,7.53127384 18.7239361,7.99228284 19.010428,8.56528479 Z" id="Path-2"></path>
                <path d="M80.010428,8.56528479 C80.901858,10.3482015 81.8258512,13.0083812 82.74981,16.4381133 C84.4181614,22.6310282 86.0292473,31.081261 87.5796643,41.3144805 C88.4851579,47.2910109 89.3344768,53.6335125 90.1634302,60.4312002 C90.4802803,63.0294747 90.7821472,65.5941968 91.1002874,68.3692112 C91.2819337,69.9536425 91.7890713,74.4389173 91.7796384,74.3560219 C93.291651,87.6433184 94.2790852,95.5412019 95.8209423,105.413656 C99.6363454,129.843541 103.140509,142.321952 109.319221,142.965488 C113.951686,143.447976 116.788325,138.119725 119.596085,126.733325 C122.300438,115.766271 124.976934,98.4965454 127.630582,74.3449227 L121.92323,73.7146575 C119.295051,97.634479 116.65284,114.682982 114.022012,125.351866 C112.834461,130.167783 111.666372,133.603223 110.565617,135.670845 C110.284603,136.198692 110.023613,136.606905 109.797493,136.896859 C109.538735,136.569216 109.246839,136.106704 108.938769,135.51756 C108.058729,133.834598 107.146768,131.321281 106.236853,128.08105 C104.588797,122.212283 103.005554,114.203545 101.493703,104.523215 C99.9680097,94.7542591 98.9877258,86.9135656 97.4845081,73.7035583 C97.4943979,73.7904678 96.9868687,69.3017299 96.8046073,67.7119336 C96.484993,64.9240607 96.1815511,62.345957 95.8628687,59.732658 C95.0276486,52.8835804 94.1711952,46.4878006 93.2564267,40.4500528 C89.3400577,14.6008372 85.8419631,1.61592125 79.6280502,1.02052598 C74.9485031,0.57214823 72.1926451,6.14695466 69.4384734,18.2275367 C66.7876174,29.8549467 64.1855242,48.1567342 61.6305823,73.7430936 L67.3438983,74.3164867 C69.877016,48.9486846 72.4494559,30.8554641 75.0360018,19.5101365 C76.2070337,14.3736565 77.3655842,10.698984 78.4674025,8.47012322 C78.7332555,7.93233102 78.9831634,7.50549603 79.2046086,7.18971248 C79.450824,7.53127384 79.7239361,7.99228284 80.010428,8.56528479 Z" id="Path-2-Copy"></path>
                <path d="M134.204609,45.1897125 C134.450824,45.5312738 134.723936,45.9922828 135.010428,46.5652848 C135.901858,48.3482015 136.825851,51.0083812 137.74981,54.4381133 C139.418161,60.6310282 141.029247,69.081261 142.579664,79.3144805 C143.485158,85.2910109 144.334477,91.6335125 145.16343,98.4312002 C145.48028,101.029475 145.782147,103.594197 146.100287,106.369211 C146.281934,107.953642 146.789071,112.438917 146.779638,112.356022 C148.291651,125.643318 149.279085,133.541202 150.820942,143.413656 C154.636345,167.843541 158.140509,180.321952 164.319221,180.965488 C168.951686,181.447976 171.788325,176.119725 174.596085,164.733325 C177.300438,153.766271 179.976934,136.496545 182.630582,112.344923 L176.92323,111.714657 C174.295051,135.634479 171.65284,152.682982 169.022012,163.351866 C167.834461,168.167783 166.666372,171.603223 165.565617,173.670845 C165.284603,174.198692 165.023613,174.606905 164.797493,174.896859 C164.538735,174.569216 164.246839,174.106704 163.938769,173.51756 C163.058729,171.834598 162.146768,169.321281 161.236853,166.08105 C159.588797,160.212283 158.005554,152.203545 156.493703,142.523215 C154.96801,132.754259 153.987726,124.913566 152.484508,111.703558 C152.494398,111.790468 151.986869,107.30173 151.804607,105.711934 C151.484993,102.924061 151.181551,100.345957 150.862869,97.732658 C150.027649,90.8835804 149.171195,84.4878006 148.256427,78.4500528 C144.340058,52.6008372 140.841963,39.6159213 134.62805,39.020526 C129.948503,38.5721482 127.192645,44.1469547 124.438473,56.2275367 C121.787617,67.8549467 119.185524,86.1567342 116.630582,111.743094 L122.343898,112.316487 C124.877016,86.9486846 127.449456,68.8554641 130.036002,57.5101365 C131.207034,52.3736565 132.365584,48.698984 133.467403,46.4701232 C133.733255,45.932331 133.983163,45.505496 134.204609,45.1897125 Z" id="Path-2"></path>
                <path d="M196.010428,74.3667914 C196.901858,75.3963631 197.825851,76.9325232 198.74981,78.9130727 C200.418161,82.489263 202.029247,87.3689749 203.579664,93.2782988 C204.485158,96.7295347 205.334477,100.392106 206.16343,104.317531 C206.48028,105.817943 206.782147,107.29898 207.100287,108.901453 C207.281934,109.816406 207.789071,112.406495 207.779638,112.358626 C209.291651,120.031571 210.279085,124.592321 211.820942,130.293316 C215.636345,144.400714 219.140509,151.606557 225.319221,151.978176 C229.951686,152.256796 232.788325,149.179919 235.596085,142.604674 C238.300438,136.271586 240.976934,126.298928 243.630582,112.352216 L237.92323,111.98826 C235.295051,125.801115 232.65284,135.646025 230.022012,141.80693 C228.834461,144.587952 227.666372,146.571798 226.565617,147.765777 C226.284603,148.07059 226.023613,148.306318 225.797493,148.473757 C225.538735,148.284554 225.246839,148.01747 224.938769,147.67726 C224.058729,146.705409 223.146768,145.254057 222.236853,143.382938 C220.588797,139.993931 219.005554,135.369167 217.493703,129.779118 C215.96801,124.137889 214.987726,119.610165 213.484508,111.981851 C213.494398,112.032038 212.986869,109.43995 212.804607,108.521898 C212.484993,106.912 212.181551,105.423236 211.862869,103.914148 C211.027649,99.9590467 210.171195,96.265709 209.256427,92.7791223 C205.340058,77.8521105 201.841963,70.3537787 195.62805,70.0099589 C190.948503,69.7510365 188.192645,72.970291 185.438473,79.9464017 C182.787617,86.6608215 180.185524,97.2294594 177.630582,112.004681 L183.343898,112.335795 C185.877016,97.6867829 188.449456,87.2385851 191.036002,80.6870579 C192.207034,77.7209216 193.365584,75.5989276 194.467403,74.311839 C194.733255,74.0012829 194.983163,73.7548008 195.204609,73.5724469 C195.450824,73.7696865 195.723936,74.035903 196.010428,74.3667914 Z" id="Path-2-Copy"></path>
            </g>
        </g>
        <path d="M76.3307434,236.836802 C64.7454003,244.345061 26.9658669,244.345061 -38.524912,237.302069 L-41.7677624,236.953327 L-24.9943586,150.029017 L-24.851112,149.710376 C-5.88431898,107.520264 15.8082922,83.9165693 40.5014234,79.2541937 C52.9598315,76.9018887 62.2058762,77.1036364 76.9192256,78.9961391 C90.7649546,80.7770443 94.796159,80.9347452 100.786015,79.1836989 C104.511017,78.0947494 108.079117,76.1820782 111.74141,73.2132598 C116.366729,69.463769 120.122491,65.9841891 124.584238,61.4838037 C125.26384,60.7983165 128.52043,57.4766319 129.384044,56.6118966 C131.126603,54.8670746 132.498733,53.5667868 133.843823,52.411184 C140.050163,47.0791496 146.025222,44.8210563 155.311483,44.8210563 C159.233452,44.8210563 161.102072,44.696289 174.153217,43.6826137 C180.626528,43.1798353 184.970566,42.892159 189.447877,42.7065376 C212.515373,41.7502 226.795657,44.4028796 232.909382,53.7345977 C234.612521,56.3341928 237.946923,59.6951812 243.438948,64.4737045 C245.932509,66.6433118 257.305839,76.1683608 260.246786,78.709315 C275.298378,91.7137694 284.265318,101.64321 288.453833,111.772735 C291.646855,119.494753 291.600675,126.851504 287.833448,133.648834 C282.154101,143.896265 277.393926,150.6382 272.499583,155.35118 C266.95443,160.690854 261.586098,163.396009 252.085937,166.283002 C250.281714,166.831285 243.09859,168.898357 241.485603,169.377961 C235.168571,171.25626 229.503054,172.076036 216.421334,173.401733 C215.94412,173.45009 215.94412,173.45009 215.46728,173.498467 C203.817859,174.681131 198.200402,175.496515 192.443269,177.132079 C185.226808,179.182229 180.201289,182.19016 177.077107,186.592435 C169.506995,197.259457 155.510309,211.62762 141.625333,221.875134 C122.84929,235.732397 105.289228,241.862167 90.7122965,237.175271 C86.4814377,235.81493 83.154725,234.5473 80.666028,233.372539 C79.5952867,234.511388 78.1482457,235.658911 76.3307434,236.836802 Z M-34.6398413,231.681741 C27.0139051,238.176639 63.3965505,238.069375 73.0676031,231.801734 C74.7349608,230.721148 75.8748534,229.773719 76.5244237,229.003065 C76.744004,228.742553 76.8784508,228.536429 76.942239,228.395364 C76.9486849,228.381109 76.935781,228.434923 76.9345856,228.54701 C76.925618,229.387899 77.5550456,229.861822 78.2277494,229.814973 C78.6187033,229.787746 79.0530817,229.64151 79.4846317,229.28146 C80.160312,228.717728 80.5023915,227.83754 80.3952764,226.988645 C80.359617,226.706042 80.2813842,226.469279 80.1813376,226.27412 C80.1356602,226.185019 80.0946915,226.121565 80.0614127,226.078238 L80.0519304,226.065733 C80.0965459,226.115433 80.2282271,226.231934 80.4466248,226.391472 C82.1802394,227.657864 86.1776065,229.414724 92.5488681,231.463265 C104.821212,235.409172 120.687706,229.870583 138.062426,217.047537 C151.428578,207.18293 164.978247,193.273648 172.184057,183.119963 C176.208862,177.448623 182.384592,173.752254 190.803593,171.360471 C197.014716,169.595931 202.858717,168.747664 214.861268,167.52915 C215.339082,167.480674 215.339082,167.480674 215.816394,167.432307 C228.503763,166.146573 233.952933,165.358102 239.775562,163.626808 C241.430071,163.134858 248.589307,161.07466 250.341379,160.542225 C259.015336,157.906306 263.589941,155.601118 268.337774,151.029219 C272.730368,146.799396 277.170779,140.510349 282.585535,130.740327 C285.407479,125.648603 285.441742,120.190269 282.90915,114.065438 C279.191818,105.075427 270.691674,95.6628863 256.324142,83.2494543 C253.432662,80.7512386 242.04861,71.2172107 239.500539,69.0001747 C233.606597,63.8719504 229.988754,60.2252611 227.890576,57.0226953 C223.434043,50.2204421 210.592732,47.8350634 189.696413,48.7013878 C185.308078,48.8833204 181.024719,49.1669784 174.617835,49.6645976 C161.324569,50.6970782 159.467769,50.8210563 155.311483,50.8210563 C147.4738,50.8210563 142.882152,52.5563314 137.753774,56.9622589 C136.544035,58.0015784 135.273406,59.2056791 133.629437,60.8517837 C132.789882,61.6924279 129.543881,65.0033118 128.84513,65.7081139 C124.242567,70.3505342 120.335324,73.9704571 115.519755,77.874173 C111.252936,81.3330467 106.977705,83.624774 102.469563,84.9426628 C95.371427,87.0176985 90.8880694,86.8423094 76.1537822,84.9471135 C62.0118084,83.1281039 53.3268783,82.9385997 41.61463,85.1500203 C19.3467269,89.3544821 -1.02752998,111.471344 -19.2355869,151.852733 L-34.6398413,231.681741 Z" id="Path-3" fill="#000000" fill-rule="nonzero" mask="url(#mask-2)"></path>
        <g id="Group-Copy" mask="url(#mask-2)" fill="#FFFFFF" fill-rule="nonzero">
            <g transform="translate(119.000000, 136.500000) scale(1, -1) translate(-119.000000, -136.500000) translate(-3.000000, 46.000000)">
                <path d="M19.010428,8.56528479 C19.901858,10.3482015 20.8258512,13.0083812 21.74981,16.4381133 C23.4181614,22.6310282 25.0292473,31.081261 26.5796643,41.3144805 C27.4851579,47.2910109 28.3344768,53.6335125 29.1634302,60.4312002 C29.4802803,63.0294747 29.7821472,65.5941968 30.1002874,68.3692112 C30.2819337,69.9536425 30.7890713,74.4389173 30.7796384,74.3560219 C32.291651,87.6433184 33.2790852,95.5412019 34.8209423,105.413656 C38.6363454,129.843541 42.1405087,142.321952 48.3192215,142.965488 C52.9516861,143.447976 55.7883254,138.119725 58.5960848,126.733325 C61.300438,115.766271 63.9769344,98.4965454 66.6305823,74.3449227 L60.92323,73.7146575 C58.2950512,97.634479 55.6528403,114.682982 53.0220122,125.351866 C51.8344609,130.167783 50.6663723,133.603223 49.565617,135.670845 C49.2846035,136.198692 49.0236128,136.606905 48.7974929,136.896859 C48.5387346,136.569216 48.2468392,136.106704 47.9387692,135.51756 C47.058729,133.834598 46.1467684,131.321281 45.2368529,128.08105 C43.5887971,122.212283 42.0055542,114.203545 40.4937027,104.523215 C38.9680097,94.7542591 37.9877258,86.9135656 36.4845081,73.7035583 C36.4943979,73.7904678 35.9868687,69.3017299 35.8046073,67.7119336 C35.484993,64.9240607 35.1815511,62.345957 34.8628687,59.732658 C34.0276486,52.8835804 33.1711952,46.4878006 32.2564267,40.4500528 C28.3400577,14.6008372 24.8419631,1.61592125 18.6280502,1.02052598 C13.9485031,0.57214823 11.1926451,6.14695466 8.43847343,18.2275367 C5.78761742,29.8549467 3.18552416,48.1567342 0.630582308,73.7430936 L6.34389835,74.3164867 C8.87701603,48.9486846 11.4494559,30.8554641 14.0360018,19.5101365 C15.2070337,14.3736565 16.3655842,10.698984 17.4674025,8.47012322 C17.7332555,7.93233102 17.9831634,7.50549603 18.2046086,7.18971248 C18.450824,7.53127384 18.7239361,7.99228284 19.010428,8.56528479 Z" id="Path-2"></path>
                <path d="M80.010428,8.56528479 C80.901858,10.3482015 81.8258512,13.0083812 82.74981,16.4381133 C84.4181614,22.6310282 86.0292473,31.081261 87.5796643,41.3144805 C88.4851579,47.2910109 89.3344768,53.6335125 90.1634302,60.4312002 C90.4802803,63.0294747 90.7821472,65.5941968 91.1002874,68.3692112 C91.2819337,69.9536425 91.7890713,74.4389173 91.7796384,74.3560219 C93.291651,87.6433184 94.2790852,95.5412019 95.8209423,105.413656 C99.6363454,129.843541 103.140509,142.321952 109.319221,142.965488 C113.951686,143.447976 116.788325,138.119725 119.596085,126.733325 C122.300438,115.766271 124.976934,98.4965454 127.630582,74.3449227 L121.92323,73.7146575 C119.295051,97.634479 116.65284,114.682982 114.022012,125.351866 C112.834461,130.167783 111.666372,133.603223 110.565617,135.670845 C110.284603,136.198692 110.023613,136.606905 109.797493,136.896859 C109.538735,136.569216 109.246839,136.106704 108.938769,135.51756 C108.058729,133.834598 107.146768,131.321281 106.236853,128.08105 C104.588797,122.212283 103.005554,114.203545 101.493703,104.523215 C99.9680097,94.7542591 98.9877258,86.9135656 97.4845081,73.7035583 C97.4943979,73.7904678 96.9868687,69.3017299 96.8046073,67.7119336 C96.484993,64.9240607 96.1815511,62.345957 95.8628687,59.732658 C95.0276486,52.8835804 94.1711952,46.4878006 93.2564267,40.4500528 C89.3400577,14.6008372 85.8419631,1.61592125 79.6280502,1.02052598 C74.9485031,0.57214823 72.1926451,6.14695466 69.4384734,18.2275367 C66.7876174,29.8549467 64.1855242,48.1567342 61.6305823,73.7430936 L67.3438983,74.3164867 C69.877016,48.9486846 72.4494559,30.8554641 75.0360018,19.5101365 C76.2070337,14.3736565 77.3655842,10.698984 78.4674025,8.47012322 C78.7332555,7.93233102 78.9831634,7.50549603 79.2046086,7.18971248 C79.450824,7.53127384 79.7239361,7.99228284 80.010428,8.56528479 Z" id="Path-2-Copy"></path>
                <path d="M134.204609,45.1897125 C134.450824,45.5312738 134.723936,45.9922828 135.010428,46.5652848 C135.901858,48.3482015 136.825851,51.0083812 137.74981,54.4381133 C139.418161,60.6310282 141.029247,69.081261 142.579664,79.3144805 C143.485158,85.2910109 144.334477,91.6335125 145.16343,98.4312002 C145.48028,101.029475 145.782147,103.594197 146.100287,106.369211 C146.281934,107.953642 146.789071,112.438917 146.779638,112.356022 C148.291651,125.643318 149.279085,133.541202 150.820942,143.413656 C154.636345,167.843541 158.140509,180.321952 164.319221,180.965488 C168.951686,181.447976 171.788325,176.119725 174.596085,164.733325 C177.300438,153.766271 179.976934,136.496545 182.630582,112.344923 L176.92323,111.714657 C174.295051,135.634479 171.65284,152.682982 169.022012,163.351866 C167.834461,168.167783 166.666372,171.603223 165.565617,173.670845 C165.284603,174.198692 165.023613,174.606905 164.797493,174.896859 C164.538735,174.569216 164.246839,174.106704 163.938769,173.51756 C163.058729,171.834598 162.146768,169.321281 161.236853,166.08105 C159.588797,160.212283 158.005554,152.203545 156.493703,142.523215 C154.96801,132.754259 153.987726,124.913566 152.484508,111.703558 C152.494398,111.790468 151.986869,107.30173 151.804607,105.711934 C151.484993,102.924061 151.181551,100.345957 150.862869,97.732658 C150.027649,90.8835804 149.171195,84.4878006 148.256427,78.4500528 C144.340058,52.6008372 140.841963,39.6159213 134.62805,39.020526 C129.948503,38.5721482 127.192645,44.1469547 124.438473,56.2275367 C121.787617,67.8549467 119.185524,86.1567342 116.630582,111.743094 L122.343898,112.316487 C124.877016,86.9486846 127.449456,68.8554641 130.036002,57.5101365 C131.207034,52.3736565 132.365584,48.698984 133.467403,46.4701232 C133.733255,45.932331 133.983163,45.505496 134.204609,45.1897125 Z" id="Path-2"></path>
                <path d="M196.010428,74.3667914 C196.901858,75.3963631 197.825851,76.9325232 198.74981,78.9130727 C200.418161,82.489263 202.029247,87.3689749 203.579664,93.2782988 C204.485158,96.7295347 205.334477,100.392106 206.16343,104.317531 C206.48028,105.817943 206.782147,107.29898 207.100287,108.901453 C207.281934,109.816406 207.789071,112.406495 207.779638,112.358626 C209.291651,120.031571 210.279085,124.592321 211.820942,130.293316 C215.636345,144.400714 219.140509,151.606557 225.319221,151.978176 C229.951686,152.256796 232.788325,149.179919 235.596085,142.604674 C238.300438,136.271586 240.976934,126.298928 243.630582,112.352216 L237.92323,111.98826 C235.295051,125.801115 232.65284,135.646025 230.022012,141.80693 C228.834461,144.587952 227.666372,146.571798 226.565617,147.765777 C226.284603,148.07059 226.023613,148.306318 225.797493,148.473757 C225.538735,148.284554 225.246839,148.01747 224.938769,147.67726 C224.058729,146.705409 223.146768,145.254057 222.236853,143.382938 C220.588797,139.993931 219.005554,135.369167 217.493703,129.779118 C215.96801,124.137889 214.987726,119.610165 213.484508,111.981851 C213.494398,112.032038 212.986869,109.43995 212.804607,108.521898 C212.484993,106.912 212.181551,105.423236 211.862869,103.914148 C211.027649,99.9590467 210.171195,96.265709 209.256427,92.7791223 C205.340058,77.8521105 201.841963,70.3537787 195.62805,70.0099589 C190.948503,69.7510365 188.192645,72.970291 185.438473,79.9464017 C182.787617,86.6608215 180.185524,97.2294594 177.630582,112.004681 L183.343898,112.335795 C185.877016,97.6867829 188.449456,87.2385851 191.036002,80.6870579 C192.207034,77.7209216 193.365584,75.5989276 194.467403,74.311839 C194.733255,74.0012829 194.983163,73.7548008 195.204609,73.5724469 C195.450824,73.7696865 195.723936,74.035903 196.010428,74.3667914 Z" id="Path-2-Copy"></path>
            </g>
        </g>
    </g>
</svg>