<?xml version="1.0" encoding="UTF-8"?>
<svg width="250px" height="250px" viewBox="0 0 250 250" version="1.1" xmlns="http://www.w3.org/2000/svg" xmlns:xlink="http://www.w3.org/1999/xlink">
    <!-- Generator: Sketch 55 (78076) - https://sketchapp.com -->
    <title>Mean reversion</title>
    <desc>Created with Sketch.</desc>
    <defs>
        <circle id="path-1" cx="125" cy="125" r="125"></circle>
    </defs>
    <g id="Mean-reversion" stroke="none" stroke-width="1" fill="none" fill-rule="evenodd">
        <mask id="mask-2" fill="white">
            <use xlink:href="#path-1"></use>
        </mask>
        <use id="Oval" fill="#D8D8D8" xlink:href="#path-1"></use>
        <rect id="Rectangle" fill="#E15E4D" mask="url(#mask-2)" x="0" y="0" width="250" height="250"></rect>
        <path d="M0,128 L250,128 C251.656854,128 253,126.656854 253,125 C253,123.343146 251.656854,122 250,122 L0,122 C-1.65685425,122 -3,123.343146 -3,125 C-3,126.656854 -1.65685425,128 0,128 Z" id="Path" fill="#000000" fill-rule="nonzero" mask="url(#mask-2)"></path>
        <path d="M-21.7789643,58.8856511 C-20.8474598,60.744024 -19.8819284,63.5167873 -18.9164328,67.0916719 C-17.1730804,73.5466822 -15.4895677,82.3545441 -13.8694514,93.0208519 C-12.9232512,99.25032 -12.035751,105.861248 -11.1695318,112.946626 C-10.8384376,115.654864 -10.5230002,118.32813 -10.190558,121.220588 C-10.0007457,122.872075 -9.47080962,127.547175 -9.48066668,127.460771 C-7.90068116,141.31041 -6.86885673,149.542546 -5.25768509,159.832821 C-1.27075978,185.296623 2.39093387,198.303143 8.84741198,198.973914 C13.68813,199.476822 16.6522909,193.92307 19.5862737,182.054776 C22.4122017,170.623577 25.2090206,152.622965 27.9819637,127.449202 L22.0180363,126.792263 C19.2717071,151.724415 16.5107151,169.494441 13.7616176,180.614852 C12.5206797,185.634587 11.3000794,189.215421 10.1498395,191.370549 C9.85619292,191.920735 9.58346937,192.346224 9.34718422,192.64845 C9.07679338,192.30694 8.77177569,191.824854 8.44985638,191.210777 C7.5302538,189.456588 6.5772958,186.836904 5.62647491,183.45954 C3.90433035,177.342396 2.24991251,168.994713 0.670095446,158.904695 C-0.924185443,148.722299 -1.94853824,140.549773 -3.51933332,126.780694 C-3.50899897,126.871282 -4.03934423,122.192572 -4.22979925,120.535493 C-4.56378189,117.629632 -4.8808651,114.942419 -5.21387386,112.21852 C-6.0866415,105.079577 -6.98159689,98.4131164 -7.937489,92.1198402 C-12.0299192,65.176639 -15.6852714,51.6421779 -22.1785319,51.0215844 C-27.068449,50.5542305 -29.9481972,56.3649728 -32.8261832,68.956827 C-35.596209,81.0763299 -38.3152799,100.152682 -40.9850797,126.821903 L-35.0149203,127.419563 C-32.3679258,100.978149 -29.6798415,82.1191911 -26.9770168,70.2937087 C-25.7533409,64.9398436 -24.5427076,61.1096523 -23.3913568,58.7864621 C-23.1135523,58.2259095 -22.8524097,57.7810101 -22.6210094,57.451862 C-22.3637254,57.8078789 -22.0783355,58.2883986 -21.7789643,58.8856511 Z" id="Path-2" fill="#FFFFFF" fill-rule="nonzero" mask="url(#mask-2)"></path>
        <path d="M40.2210357,58.8856511 C41.1525402,60.744024 42.1180716,63.5167873 43.0835672,67.0916719 C44.8269196,73.5466822 46.5104323,82.3545441 48.1305486,93.0208519 C49.0767488,99.25032 49.964249,105.861248 50.8304682,112.946626 C51.1615624,115.654864 51.4769998,118.32813 51.809442,121.220588 C51.9992543,122.872075 52.5291904,127.547175 52.5193333,127.460771 C54.0993188,141.31041 55.1311433,149.542546 56.7423149,159.832821 C60.7292402,185.296623 64.3909339,198.303143 70.847412,198.973914 C75.68813,199.476822 78.6522909,193.92307 81.5862737,182.054776 C84.4122017,170.623577 87.2090206,152.622965 89.9819637,127.449202 L84.0180363,126.792263 C81.2717071,151.724415 78.5107151,169.494441 75.7616176,180.614852 C74.5206797,185.634587 73.3000794,189.215421 72.1498395,191.370549 C71.8561929,191.920735 71.5834694,192.346224 71.3471842,192.64845 C71.0767934,192.30694 70.7717757,191.824854 70.4498564,191.210777 C69.5302538,189.456588 68.5772958,186.836904 67.6264749,183.45954 C65.9043304,177.342396 64.2499125,168.994713 62.6700954,158.904695 C61.0758146,148.722299 60.0514618,140.549773 58.4806667,126.780694 C58.491001,126.871282 57.9606558,122.192572 57.7702007,120.535493 C57.4362181,117.629632 57.1191349,114.942419 56.7861261,112.21852 C55.9133585,105.079577 55.0184031,98.4131164 54.062511,92.1198402 C49.9700808,65.176639 46.3147286,51.6421779 39.8214681,51.0215844 C34.931551,50.5542305 32.0518028,56.3649728 29.1738168,68.956827 C26.403791,81.0763299 23.6847201,100.152682 21.0149203,126.821903 L26.9850797,127.419563 C29.6320742,100.978149 32.3201585,82.1191911 35.0229832,70.2937087 C36.2466591,64.9398436 37.4572924,61.1096523 38.6086432,58.7864621 C38.8864477,58.2259095 39.1475903,57.7810101 39.3789906,57.451862 C39.6362746,57.8078789 39.9216645,58.2883986 40.2210357,58.8856511 Z" id="Path-2-Copy" fill="#FFFFFF" fill-rule="nonzero" mask="url(#mask-2)"></path>
        <path d="M102.378991,57.451862 C102.636275,57.8078789 102.921665,58.2883986 103.221036,58.8856511 C104.15254,60.744024 105.118072,63.5167873 106.083567,67.0916719 C107.82692,73.5466822 109.510432,82.3545441 111.130549,93.0208519 C112.076749,99.25032 112.964249,105.861248 113.830468,112.946626 C114.161562,115.654864 114.477,118.32813 114.809442,121.220588 C114.999254,122.872075 115.52919,127.547175 115.519333,127.460771 C117.099319,141.31041 118.131143,149.542546 119.742315,159.832821 C123.72924,185.296623 127.390934,198.303143 133.847412,198.973914 C138.68813,199.476822 141.652291,193.92307 144.586274,182.054776 C147.412202,170.623577 150.209021,152.622965 152.981964,127.449202 L147.018036,126.792263 C144.271707,151.724415 141.510715,169.494441 138.761618,180.614852 C137.52068,185.634587 136.300079,189.215421 135.149839,191.370549 C134.856193,191.920735 134.583469,192.346224 134.347184,192.64845 C134.076793,192.30694 133.771776,191.824854 133.449856,191.210777 C132.530254,189.456588 131.577296,186.836904 130.626475,183.45954 C128.90433,177.342396 127.249913,168.994713 125.670095,158.904695 C124.075815,148.722299 123.051462,140.549773 121.480667,126.780694 C121.491001,126.871282 120.960656,122.192572 120.770201,120.535493 C120.436218,117.629632 120.119135,114.942419 119.786126,112.21852 C118.913358,105.079577 118.018403,98.4131164 117.062511,92.1198402 C112.970081,65.176639 109.314729,51.6421779 102.821468,51.0215844 C97.931551,50.5542305 95.0518028,56.3649728 92.1738168,68.956827 C89.403791,81.0763299 86.6847201,100.152682 84.0149203,126.821903 L89.9850797,127.419563 C92.6320742,100.978149 95.3201585,82.1191911 98.0229832,70.2937087 C99.2466591,64.9398436 100.457292,61.1096523 101.608643,58.7864621 C101.886448,58.2259095 102.14759,57.7810101 102.378991,57.451862 Z" id="Path-2" fill="#FFFFFF" fill-rule="nonzero" mask="url(#mask-2)"></path>
        <path d="M165.221036,58.8856511 C166.15254,60.744024 167.118072,63.5167873 168.083567,67.0916719 C169.82692,73.5466822 171.510432,82.3545441 173.130549,93.0208519 C174.076749,99.25032 174.964249,105.861248 175.830468,112.946626 C176.161562,115.654864 176.477,118.32813 176.809442,121.220588 C176.999254,122.872075 177.52919,127.547175 177.519333,127.460771 C179.099319,141.31041 180.131143,149.542546 181.742315,159.832821 C185.72924,185.296623 189.390934,198.303143 195.847412,198.973914 C200.68813,199.476822 203.652291,193.92307 206.586274,182.054776 C209.412202,170.623577 212.209021,152.622965 214.981964,127.449202 L209.018036,126.792263 C206.271707,151.724415 203.510715,169.494441 200.761618,180.614852 C199.52068,185.634587 198.300079,189.215421 197.149839,191.370549 C196.856193,191.920735 196.583469,192.346224 196.347184,192.64845 C196.076793,192.30694 195.771776,191.824854 195.449856,191.210777 C194.530254,189.456588 193.577296,186.836904 192.626475,183.45954 C190.90433,177.342396 189.249913,168.994713 187.670095,158.904695 C186.075815,148.722299 185.051462,140.549773 183.480667,126.780694 C183.491001,126.871282 182.960656,122.192572 182.770201,120.535493 C182.436218,117.629632 182.119135,114.942419 181.786126,112.21852 C180.913358,105.079577 180.018403,98.4131164 179.062511,92.1198402 C174.970081,65.176639 171.314729,51.6421779 164.821468,51.0215844 C159.931551,50.5542305 157.051803,56.3649728 154.173817,68.956827 C151.403791,81.0763299 148.68472,100.152682 146.01492,126.821903 L151.98508,127.419563 C154.632074,100.978149 157.320159,82.1191911 160.022983,70.2937087 C161.246659,64.9398436 162.457292,61.1096523 163.608643,58.7864621 C163.886448,58.2259095 164.14759,57.7810101 164.378991,57.451862 C164.636275,57.8078789 164.921665,58.2883986 165.221036,58.8856511 Z" id="Path-2-Copy" fill="#FFFFFF" fill-rule="nonzero" mask="url(#mask-2)"></path>
    </g>
</svg>