<?xml version="1.0" encoding="UTF-8"?>
<svg width="250px" height="250px" viewBox="0 0 250 250" version="1.1" xmlns="http://www.w3.org/2000/svg" xmlns:xlink="http://www.w3.org/1999/xlink">
    <!-- Generator: Sketch 55 (78076) - https://sketchapp.com -->
    <title>Multi-level-rsi</title>
    <desc>Created with Sketch.</desc>
    <defs>
        <circle id="path-1" cx="125" cy="125" r="125"></circle>
    </defs>
    <g id="Multi-level-rsi" stroke="none" stroke-width="1" fill="none" fill-rule="evenodd">
        <mask id="mask-2" fill="white">
            <use xlink:href="#path-1"></use>
        </mask>
        <use id="Oval" fill="#D8D8D8" xlink:href="#path-1"></use>
        <rect id="Rectangle" fill="#00A996" mask="url(#mask-2)" x="0" y="0" width="250" height="250"></rect>
        <path d="M0,128 L250,128 C251.656854,128 253,126.656854 253,125 C253,123.343146 251.656854,122 250,122 L0,122 C-1.65685425,122 -3,123.343146 -3,125 C-3,126.656854 -1.65685425,128 0,128 Z" id="Path" fill="#000000" fill-rule="nonzero" mask="url(#mask-2)"></path>
        <path d="M0,158 L250,158 C251.656854,158 253,156.656854 253,155 C253,153.343146 251.656854,152 250,152 L0,152 C-1.65685425,152 -3,153.343146 -3,155 C-3,156.656854 -1.65685425,158 0,158 Z" id="Path-Copy" fill="#000000" fill-rule="nonzero" mask="url(#mask-2)"></path>
        <path d="M0,188 L250,188 C251.656854,188 253,186.656854 253,185 C253,183.343146 251.656854,182 250,182 L0,182 C-1.65685425,182 -3,183.343146 -3,185 C-3,186.656854 -1.65685425,188 0,188 Z" id="Path-Copy-2" fill="#000000" fill-rule="nonzero" mask="url(#mask-2)"></path>
        <g id="Group" mask="url(#mask-2)" fill="#FFFFFF" fill-rule="nonzero">
            <g transform="translate(-41.985080, 50.995517)">
                <path d="M19.2061154,7.89013384 C20.1376198,9.74850683 21.1031513,12.5212701 22.0686469,16.0961547 C23.8119993,22.551165 25.495512,31.3590269 27.1156283,42.0253347 C28.0618285,48.2548028 28.9493287,54.8657305 29.8155478,61.9511086 C30.146642,64.6593468 30.4620794,67.3326127 30.7945216,70.2250706 C30.9843339,71.8765579 31.51427,76.5516577 31.504413,76.465254 C33.0843985,90.314893 34.1162229,98.5470292 35.7273946,108.837304 C39.7143199,134.301106 43.3760135,147.307626 49.8324916,147.978397 C54.6732097,148.481305 57.6373706,142.927552 60.5713534,131.059259 C63.3972813,119.62806 66.1941003,101.627448 68.9670434,76.4536851 L63.0031159,75.7967459 C60.2567868,100.728898 57.4957947,118.498924 54.7466973,129.619335 C53.5057593,134.63907 52.2851591,138.219903 51.1349191,140.375032 C50.8412726,140.925218 50.568549,141.350707 50.3322639,141.652932 C50.061873,141.311423 49.7568553,140.829337 49.434936,140.215259 C48.5153335,138.461071 47.5623755,135.841386 46.6115546,132.464023 C44.88941,126.346879 43.2349922,117.999196 41.6551751,107.909178 C40.0608942,97.7267815 39.0365414,89.5542557 37.4657463,75.785177 C37.4760807,75.8757646 36.9457354,71.1970552 36.7552804,69.5399758 C36.4212978,66.6341152 36.1042146,63.9469014 35.7712058,61.2230029 C34.8984382,54.08406 34.0034828,47.4175991 33.0475907,41.1243229 C28.9551605,14.1811218 25.2998083,0.64666066 18.8065477,0.0260671814 C13.9166306,-0.441286724 11.0368825,5.36945561 8.15889645,17.9613098 C5.38887068,30.0808127 2.66979978,49.1571651 0,75.8263854 L5.97015932,76.4240456 C8.61715382,49.9826322 11.3052382,31.1236739 14.0080628,19.2981914 C15.2317388,13.9443264 16.4423721,10.1141351 17.5937229,7.79094486 C17.8715273,7.23039233 18.1326699,6.7854929 18.3640703,6.45634482 C18.6213543,6.81236168 18.9067442,7.29288141 19.2061154,7.89013384 Z" id="Path-2"></path>
                <path d="M82.2061154,7.89013384 C83.1376198,9.74850683 84.1031513,12.5212701 85.0686469,16.0961547 C86.8119993,22.551165 88.495512,31.3590269 90.1156283,42.0253347 C91.0618285,48.2548028 91.9493287,54.8657305 92.8155478,61.9511086 C93.146642,64.6593468 93.4620794,67.3326127 93.7945216,70.2250706 C93.9843339,71.8765579 94.51427,76.5516577 94.504413,76.465254 C96.0843985,90.314893 97.1162229,98.5470292 98.7273946,108.837304 C102.71432,134.301106 106.376014,147.307626 112.832492,147.978397 C117.67321,148.481305 120.637371,142.927552 123.571353,131.059259 C126.397281,119.62806 129.1941,101.627448 131.967043,76.4536851 L126.003116,75.7967459 C123.256787,100.728898 120.495795,118.498924 117.746697,129.619335 C116.505759,134.63907 115.285159,138.219903 114.134919,140.375032 C113.841273,140.925218 113.568549,141.350707 113.332264,141.652932 C113.061873,141.311423 112.756855,140.829337 112.434936,140.215259 C111.515333,138.461071 110.562375,135.841386 109.611555,132.464023 C107.88941,126.346879 106.234992,117.999196 104.655175,107.909178 C103.060894,97.7267815 102.036541,89.5542557 100.465746,75.785177 C100.476081,75.8757646 99.9457354,71.1970552 99.7552804,69.5399758 C99.4212978,66.6341152 99.1042146,63.9469014 98.7712058,61.2230029 C97.8984382,54.08406 97.0034828,47.4175991 96.0475907,41.1243229 C91.9551605,14.1811218 88.2998083,0.64666066 81.8065477,0.0260671814 C76.9166306,-0.441286724 74.0368825,5.36945561 71.1588965,17.9613098 C68.3888707,30.0808127 65.6697998,49.1571651 63,75.8263854 L68.9701593,76.4240456 C71.6171538,49.9826322 74.3052382,31.1236739 77.0080628,19.2981914 C78.2317388,13.9443264 79.4423721,10.1141351 80.5937229,7.79094486 C80.8715273,7.23039233 81.1326699,6.7854929 81.3640703,6.45634482 C81.6213543,6.81236168 81.9067442,7.29288141 82.2061154,7.89013384 Z" id="Path-2-Copy"></path>
                <path d="M139.36407,46.4563448 C139.621354,46.8123617 139.906744,47.2928814 140.206115,47.8901338 C141.13762,49.7485068 142.103151,52.5212701 143.068647,56.0961547 C144.811999,62.551165 146.495512,71.3590269 148.115628,82.0253347 C149.061828,88.2548028 149.949329,94.8657305 150.815548,101.951109 C151.146642,104.659347 151.462079,107.332613 151.794522,110.225071 C151.984334,111.876558 152.51427,116.551658 152.504413,116.465254 C154.084398,130.314893 155.116223,138.547029 156.727395,148.837304 C160.71432,174.301106 164.376014,187.307626 170.832492,187.978397 C175.67321,188.481305 178.637371,182.927552 181.571353,171.059259 C184.397281,159.62806 187.1941,141.627448 189.967043,116.453685 L184.003116,115.796746 C181.256787,140.728898 178.495795,158.498924 175.746697,169.619335 C174.505759,174.63907 173.285159,178.219903 172.134919,180.375032 C171.841273,180.925218 171.568549,181.350707 171.332264,181.652932 C171.061873,181.311423 170.756855,180.829337 170.434936,180.215259 C169.515333,178.461071 168.562375,175.841386 167.611555,172.464023 C165.88941,166.346879 164.234992,157.999196 162.655175,147.909178 C161.060894,137.726781 160.036541,129.554256 158.465746,115.785177 C158.476081,115.875765 157.945735,111.197055 157.75528,109.539976 C157.421298,106.634115 157.104215,103.946901 156.771206,101.223003 C155.898438,94.08406 155.003483,87.4175991 154.047591,81.1243229 C149.95516,54.1811218 146.299808,40.6466607 139.806548,40.0260672 C134.916631,39.5587133 132.036883,45.3694556 129.158896,57.9613098 C126.388871,70.0808127 123.6698,89.1571651 121,115.826385 L126.970159,116.424046 C129.617154,89.9826322 132.305238,71.1236739 135.008063,59.2981914 C136.231739,53.9443264 137.442372,50.1141351 138.593723,47.7909449 C138.871527,47.2303923 139.13267,46.7854929 139.36407,46.4563448 Z" id="Path-2"></path>
                <path d="M203.200373,76.5889899 C204.132322,77.6687846 205.098315,79.2798793 206.064272,81.357041 C207.808458,85.1076796 209.492775,90.2254262 211.113665,96.4230098 C212.060318,100.042599 212.948242,103.883832 213.814875,108.000741 C214.146128,109.574344 214.461716,111.127627 214.794317,112.808269 C214.98422,113.767854 215.514409,116.484288 215.504547,116.434084 C217.085288,124.48132 218.117605,129.264545 219.729547,135.243637 C223.718377,150.039202 227.381821,157.596549 233.841384,157.986296 C238.684415,158.278507 241.649993,155.051538 244.585378,148.155549 C247.412656,141.513531 250.210811,131.054401 252.98508,116.427362 L247.018302,116.045652 C244.270661,130.532305 241.508349,140.857454 238.757938,147.318891 C237.516407,150.235573 236.295224,152.316192 235.144434,153.568414 C234.850647,153.888096 234.577793,154.135323 234.341395,154.310929 C234.070875,154.112497 233.765712,153.832385 233.443639,153.475579 C232.523597,152.45632 231.570183,150.934171 230.618908,148.971778 C228.895941,145.417454 227.240732,140.567091 225.66016,134.704356 C224.065117,128.787946 223.040275,124.039357 221.468729,116.03893 C221.479069,116.091566 220.94847,113.373034 220.757924,112.4102 C220.423782,110.72177 220.106547,109.160383 219.773379,107.577681 C218.900194,103.429648 218.004811,99.5561474 217.048462,95.8994832 C212.954077,80.2443245 209.296978,72.3802204 202.800614,72.0196289 C197.90836,71.7480762 195.027236,75.1243674 192.147875,82.4407763 C189.376525,89.4827288 186.656155,100.56691 183.98508,116.062874 L189.958092,116.41014 C192.606351,101.046542 195.29572,90.088676 197.999836,83.217562 C199.224097,80.1067362 200.435309,77.8812303 201.58721,76.5313568 C201.865147,76.2056517 202.126414,75.947146 202.357925,75.7558968 C202.615332,75.9627579 202.900859,76.2419606 203.200373,76.5889899 Z" id="Path-2-Copy"></path>
            </g>
        </g>
    </g>
</svg>