<?xml version="1.0" encoding="utf-8"?>
<!-- Svg Vector Icons : http://www.onlinewebfonts.com/icon -->
<!DOCTYPE svg PUBLIC "-//W3C//DTD SVG 1.1//EN" "http://www.w3.org/Graphics/SVG/1.1/DTD/svg11.dtd">
<svg version="1.1" xmlns="http://www.w3.org/2000/svg" xmlns:xlink="http://www.w3.org/1999/xlink" x="0px" y="0px" viewBox="0 0 1000 1000" enable-background="new 0 0 1000 1000" xml:space="preserve">
<metadata> Svg Vector Icons : http://www.onlinewebfonts.com/icon </metadata>
<g><g transform="translate(0.000000,511.000000) scale(0.100000,-0.100000)"><path d="M9452.2,4991.3c-295.5-26.9-730-98.5-1007.6-165.7c-253-62.7-716.5-206-743.4-230.6c-9-9,385.1-416.5,877.7-909.1l893.4-893.4l24.6,67.2c199.3,521.7,403,1574.1,403,2086.9v71.7l-116.4-2.2C9718.6,5013.7,9568.6,5002.5,9452.2,4991.3z"/><path d="M7161.6,4362.2c-71.7-38.1-129.9-78.4-127.7-85.1c2.2-9,485.9-497.1,1074.8-1083.8L9179,2123l78.4,156.7l80.6,156.7l-1000.9,998.7C7786.2,3986,7325,4436,7313.8,4436C7300.4,4436,7233.2,4402.5,7161.6,4362.2z"/><path d="M6496.5,3970.3c-1352.4-853.1-2519-2104.8-3392.3-3631.9C2929.5,31.6,2609.3-611,2553.4-765.5l-29.1-85.1l747.9-747.9c412-412,765.8-750.1,783.7-750.1c58.2,0,1094.9,526.2,1399.5,709.8C6904-763.3,8084.1,351.8,8856.6,1569.9l150,232.9l-1146.4,1133c-631.4,622.5-1157.6,1133-1171.1,1135.3C6675.6,4075.5,6588.3,4028.5,6496.5,3970.3z M6816.7,2288.7c156.7-67.2,333.6-246.3,409.7-412c132.1-291.1,65-644.9-165.7-873.3c-159-156.7-331.4-226.2-553.1-226.2c-147.8,0-201.5,9-313.5,60.4c-356,165.7-544.1,544.1-450.1,911.3c73.9,286.6,297.8,510.5,582.2,584.4C6440.5,2362.6,6700.2,2340.2,6816.7,2288.7z"/><path d="M6344.3,1966.3c-94.1-35.8-203.8-141.1-241.8-232.9c-73.9-172.4-13.4-398.6,129.9-506c293.3-223.9,709.8-24.6,712,338.1C6944.3,1865.5,6637.6,2071.5,6344.3,1966.3z"/><path d="M2793,1858.8c-371.7-60.4-839.7-291.1-1256.2-613.5C1095.7,900.4,524.7,197.3,157.5-456.5C85.8-586.4,83.6-588.6,137.3-555c349.3,226.2,721,416.5,985.2,501.6C1277-2,1353.2,9.2,1525.6,9.2c291.1,0,461.3-67.2,736.7-293.3l89.6-73.9l134.3,282.1c210.5,441.1,409.8,792.7,734.4,1287.5c163.5,253,313.5,481.4,333.6,508.3c33.6,47,31.3,47-163.5,91.8C3149,1867.7,2936.3,1883.4,2793,1858.8z"/><path d="M6501-1396.9c-394.1-286.6-1074.8-694.1-1587.6-951.6l-387.4-192.6l103-120.9c212.7-259.7,302.3-555.3,257.5-848.6c-49.3-309-255.3-770.3-553.1-1222.6l-42.5-64.9l134.3,76.1c463.5,259.7,998.7,653.8,1341.3,985.2c342.6,331.4,555.3,622.5,738.9,1007.6c161.2,342.6,203.8,535.2,201.5,906.9c-2.2,194.8-15.7,353.8-33.6,421l-31.4,107.5L6501-1396.9z"/><path d="M2054-1623.1l-64.9-125.4l512.8-512.8c282.1-282.1,521.7-512.8,532.9-512.8s73.9,31.4,141.1,69.4L3299-2633l-566.5,566.5c-313.5,313.5-577.7,568.8-591.1,568.8C2130.2-1497.7,2089.9-1553.7,2054-1623.1z"/><path d="M1033-2897.2l-414.2-414.2l85.1-82.9l82.9-85.1l414.2,414.2c228.4,228.4,414.2,425.4,414.2,438.9c0,29.1-116.4,143.3-147.8,143.3C1456.2-2482.9,1261.4-2668.8,1033-2897.2z"/><path d="M1122.5-3479.4l-682.9-682.9l85.1-82.9l82.9-85.1l682.9,682.9l682.9,682.9l-85.1,85.1l-82.9,82.9L1122.5-3479.4z"/><path d="M1642-3654c-273.2-273.2-497.1-508.3-497.1-521.7c0-29.1,116.4-143.3,147.8-143.3c11.2,0,246.3,226.1,524,503.8l501.6,503.8l-76.1,78.4c-42.5,42.5-80.6,78.4-89.6,78.4C2145.8-3154.7,1917.4-3378.6,1642-3654z"/><path d="M365.7-3564.4c-40.3-40.3-71.7-85.1-71.7-96.3c0-29.1,118.7-143.3,147.8-143.3c13.4,0,56,35.8,98.5,78.4l76.1,78.4l-76.1,78.4c-42.5,42.5-82.9,78.4-89.6,78.4S406-3524.1,365.7-3564.4z"/><path d="M182.1-4419.8l-76.1-78.4l82.8-85.1l82.9-82.9l82.9,82.9l82.8,85.1l-76.1,78.4c-42.5,42.5-82.9,78.4-89.6,78.4S224.6-4377.2,182.1-4419.8z"/><path d="M880.7-4415.3c-40.3-40.3-71.7-85.1-71.7-96.3c0-29.1,118.7-143.3,147.8-143.3c13.4,0,56,35.8,98.5,78.4l76.1,78.4l-76.1,78.4c-42.5,42.5-82.9,78.4-89.6,78.4C959.1-4341.4,921-4375,880.7-4415.3z"/></g></g>
</svg>